<?xml version="1.0" standalone="no"?>
<!DOCTYPE svg PUBLIC "-//W3C//DTD SVG 1.1//EN" "http://www.w3.org/Graphics/SVG/1.1/DTD/svg11.dtd">
<svg xmlns="http://www.w3.org/2000/svg" xmlns:xlink="http://www.w3.org/1999/xlink" version="1.1" width="487" height="496" style="shape-rendering:geometricPrecision; text-rendering:geometricPrecision; image-rendering:optimizeQuality; fill-rule:evenodd; clip-rule:evenodd" viewBox="0 0 487 496">
<g><path style="opacity:1" fill="#02b871" d="M -0.5,-0.5 C 161.833,-0.5 324.167,-0.5 486.5,-0.5C 486.5,164.833 486.5,330.167 486.5,495.5C 324.167,495.5 161.833,495.5 -0.5,495.5C -0.5,330.167 -0.5,164.833 -0.5,-0.5 Z"/></g>
<g><path style="opacity:1" fill="#fafcfc" d="M 223.5,87.5 C 227.936,87.2101 232.27,87.7101 236.5,89C 223.024,94.9006 210.691,102.567 199.5,112C 179.833,129 160.167,146 140.5,163C 127.64,174.527 115.473,186.694 104,199.5C 77.2592,236.323 75.5925,274.323 99,313.5C 102.667,318.167 106.333,322.833 110,327.5C 140.419,358.933 172.919,387.767 207.5,414C 217.8,421.483 229.133,426.816 241.5,430C 228.185,432.738 215.185,431.738 202.5,427C 198.007,424.921 193.674,422.588 189.5,420C 155.871,393.387 124.037,364.554 94,333.5C 60.3883,291.614 56.7216,247.281 83,200.5C 86.5755,196.347 89.9088,192.014 93,187.5C 123.603,157.891 155.103,129.391 187.5,102C 198.155,93.511 210.155,88.6777 223.5,87.5 Z"/></g>
<g><path style="opacity:1" fill="#fafcfc" d="M 253.5,96.5 C 274.455,94.1017 294.122,97.935 312.5,108C 341.493,123.993 363.326,146.826 378,176.5C 380.505,182.007 382.172,187.673 383,193.5C 359.842,168.011 335.009,144.178 308.5,122C 280.444,107.865 253.444,109.532 227.5,127C 213.5,139.667 199.5,152.333 185.5,165C 180.898,166.867 176.232,168.534 171.5,170C 158.516,183.264 145.349,196.43 132,209.5C 113.891,233.066 109.557,259.066 119,287.5C 124.056,299.284 130.389,310.284 138,320.5C 150.249,333.084 162.749,345.251 175.5,357C 182.377,358.366 189.044,360.366 195.5,363C 207.167,372.667 218.833,382.333 230.5,392C 251.435,405.581 273.769,408.248 297.5,400C 301.993,397.921 306.326,395.588 310.5,393C 331.855,374.651 352.355,355.151 372,334.5C 376.487,329.524 380.487,324.191 384,318.5C 378.413,342.83 366.247,363.33 347.5,380C 331.022,393.079 313.355,404.413 294.5,414C 263.612,426.131 235.945,421.131 211.5,399C 203.463,391.295 195.13,383.961 186.5,377C 180.414,374.578 174.414,371.911 168.5,369C 152.394,354.896 136.894,340.062 122,324.5C 94.3269,289.774 90.3269,252.44 110,212.5C 112.667,208.5 115.333,204.5 118,200.5C 132.833,186.333 147.667,172.167 162.5,158C 168.331,154.919 173.998,151.585 179.5,148C 191.507,136.327 203.841,124.993 216.5,114C 227.556,105.375 239.89,99.5416 253.5,96.5 Z"/></g>
<g><path style="opacity:1" fill="#fafcfc" d="M 174.5,96.5 C 176.379,96.3932 176.712,96.8932 175.5,98C 143.106,125.793 111.606,154.627 81,184.5C 78.6667,187.5 76.3333,190.5 74,193.5C 78.419,174.663 87.0857,157.996 100,143.5C 120.5,120.84 145.334,105.174 174.5,96.5 Z"/></g>
<g><path style="opacity:1" fill="#fbfdfd" d="M 263.5,123.5 C 277.699,122.366 291.033,125.199 303.5,132C 325.234,150.062 346.067,169.229 366,189.5C 389.869,221.418 395.536,256.418 383,294.5C 378.105,306.632 371.438,317.632 363,327.5C 343.833,346.812 324,365.312 303.5,383C 280.367,397.485 257.7,396.819 235.5,381C 205.37,355.206 175.537,329.039 146,302.5C 124.24,270.557 125.573,239.557 150,209.5C 177.833,185 205.667,160.5 233.5,136C 242.739,129.761 252.739,125.594 263.5,123.5 Z"/></g>
<g><path style="opacity:1" fill="#07b872" d="M 264.5,140.5 C 276.251,139.023 287.251,141.189 297.5,147C 314.6,161.43 331.1,176.597 347,192.5C 381.565,234.263 382.232,276.596 349,319.5C 333.072,336.432 316.239,352.265 298.5,367C 280.908,378.254 263.242,378.254 245.5,367C 215.111,342.284 185.611,316.451 157,289.5C 149.086,276.93 146.42,263.264 149,248.5C 150.85,238.803 154.85,230.136 161,222.5C 186.167,200 211.333,177.5 236.5,155C 240.5,152.333 244.5,149.667 248.5,147C 253.893,144.709 259.226,142.543 264.5,140.5 Z"/></g>
<g><path style="opacity:1" fill="#fafcfc" d="M 272.5,149.5 C 281.009,150.614 288.676,153.781 295.5,159C 310.299,171.798 324.465,185.298 338,199.5C 361.395,230.371 364.729,263.371 348,298.5C 340.249,309.254 331.416,319.087 321.5,328C 307.5,340 293.5,352 279.5,364C 271.531,366.692 267.364,363.859 267,355.5C 287.633,337.202 307.967,318.535 328,299.5C 341.825,281.319 346.158,260.986 341,238.5C 338.114,227.395 333.114,217.395 326,208.5C 313.779,196.279 301.613,184.113 289.5,172C 281.638,170.986 275.138,167.486 270,161.5C 266.11,156.401 266.944,152.401 272.5,149.5 Z"/></g>
<g><path style="opacity:1" fill="#fafcfc" d="M 243.5,162.5 C 247.331,162.249 250.664,163.416 253.5,166C 274.285,184.484 294.785,203.317 315,222.5C 331.11,247.518 330.11,271.851 312,295.5C 292.833,312.667 273.667,329.833 254.5,347C 248.767,353.152 243.267,352.986 238,346.5C 236.627,344.305 236.294,341.971 237,339.5C 258.929,321.242 280.262,302.242 301,282.5C 311.917,266.014 312.25,249.347 302,232.5C 281.265,212.428 259.931,193.094 238,174.5C 236.146,171.348 236.479,168.348 239,165.5C 240.652,164.601 242.152,163.601 243.5,162.5 Z"/></g>
<g><path style="opacity:1" fill="#fbfdfd" d="M 213.5,221.5 C 213.5,244.833 213.5,268.167 213.5,291.5C 208.5,291.5 203.5,291.5 198.5,291.5C 197.511,268.242 197.177,244.908 197.5,221.5C 202.833,221.5 208.167,221.5 213.5,221.5 Z"/></g>
<g><path style="opacity:1" fill="#fbfdfc" d="M 238.5,221.5 C 252.354,219.568 265.021,222.402 276.5,230C 289.545,244.529 291.379,260.362 282,277.5C 275.413,285.544 266.913,290.044 256.5,291C 247.84,291.5 239.173,291.666 230.5,291.5C 230.5,290.5 230.5,289.5 230.5,288.5C 230.5,266.167 230.5,243.833 230.5,221.5C 233.167,221.5 235.833,221.5 238.5,221.5 Z"/></g>
<g><path style="opacity:1" fill="#12b874" d="M 246.5,234.5 C 265.81,234.644 274.31,244.311 272,263.5C 266.915,275.043 258.248,279.376 246,276.5C 245.186,262.425 245.352,248.425 246.5,234.5 Z"/></g>
<g><path style="opacity:1" fill="#5ac29f" d="M 213.5,221.5 C 208.167,221.5 202.833,221.5 197.5,221.5C 197.177,244.908 197.511,268.242 198.5,291.5C 196.51,268.19 195.843,244.524 196.5,220.5C 202.358,220.178 208.025,220.511 213.5,221.5 Z"/></g>
<g><path style="opacity:1" fill="#4dbd96" d="M 238.5,221.5 C 235.833,221.5 233.167,221.5 230.5,221.5C 230.5,243.833 230.5,266.167 230.5,288.5C 229.503,266.006 229.169,243.339 229.5,220.5C 232.713,220.19 235.713,220.523 238.5,221.5 Z"/></g>
<g><path style="opacity:1" fill="#f8fbfb" d="M 72.5,321.5 C 77.0864,327.933 81.9197,334.266 87,340.5C 114.629,368.802 143.463,395.635 173.5,421C 132.255,408.77 101.422,383.603 81,345.5C 77.6594,337.643 74.8261,329.643 72.5,321.5 Z"/></g>
</svg>